<svg width="24" height="24" viewBox="0 0 24 24" fill="none" xmlns="http://www.w3.org/2000/svg">
<path d="M13.7096 4.61898e-06H10.2902C9.78024 4.61898e-06 9.36668 0.4884 9.36668 1.09106C9.36668 1.69356 9.78024 2.18213 10.2902 2.18213H14.1265C14.5649 2.18213 14.9676 2.5261 15.0595 3.03265C15.1876 3.73842 14.7351 4.36425 14.1578 4.36425H9.42181C8.91181 4.36425 8.49825 4.85264 8.49825 5.45531C8.49825 6.0578 8.91181 6.54637 9.42181 6.54637H17.3415C17.8495 6.54637 18.294 7.00961 18.3058 7.60961C18.318 8.22476 17.9005 8.72682 17.384 8.72682H7.33568C6.82567 8.72682 6.41211 9.21538 6.41211 9.81788C6.41211 10.4205 6.82567 10.9089 7.33568 10.9089H19.2097C19.7181 10.9089 20.1633 11.3724 20.1755 11.9728C20.1882 12.5885 19.7706 13.0911 19.2522 13.0911H14.0652C13.5552 13.0911 13.1416 13.5796 13.1416 14.1821C13.1416 14.7848 13.5552 15.2732 14.0652 15.2732H17.6668C18.1833 15.2732 18.6008 15.7752 18.5887 16.3904C18.5768 16.9904 18.1324 17.4536 17.6244 17.4536H15.2292C14.7191 17.4536 14.3056 17.9422 14.3056 18.5447C14.3056 19.1474 14.7191 19.6358 15.2292 19.6358H15.4335C15.944 19.6358 16.357 20.1253 16.357 20.7268C16.357 21.3363 15.9398 21.8179 15.4335 21.8179H7.66238C7.15237 21.8179 6.73881 22.3064 6.73881 22.9089C6.73881 23.5116 7.15237 24 7.66238 24H13.8431C19.4773 24 24.0397 18.579 23.9994 11.9122C23.9592 5.29339 19.3125 4.61898e-06 13.7096 4.61898e-06" fill="white"/>
<path d="M2.42915 2.18213H6.59338C7.10339 2.18213 7.51681 1.69373 7.51681 1.09124V1.0909C7.51681 0.488403 7.10339 7.92742e-06 6.59338 7.92742e-06H2.42915C1.91928 7.92742e-06 1.50586 0.488403 1.50586 1.0909V1.09124C1.50586 1.69373 1.91928 2.18213 2.42915 2.18213Z" fill="white"/>
<path d="M6.554 5.45516C6.554 4.85266 6.14058 4.36427 5.63057 4.36427H4.75058C4.24057 4.36427 3.82715 4.85266 3.82715 5.45516V5.45549C3.82715 6.05799 4.24057 6.54639 4.75058 6.54639H5.63057C6.14058 6.54639 6.554 6.05799 6.554 5.45549V5.45516Z" fill="white"/>
<path d="M1.48007 10.9089H3.50853C4.01854 10.9089 4.43196 10.4205 4.43196 9.81804V9.81771C4.43196 9.21521 4.01854 8.72681 3.50853 8.72681H1.48007C0.970061 8.72681 0.556641 9.21521 0.556641 9.81771V9.81804C0.556641 10.4205 0.970061 10.9089 1.48007 10.9089" fill="white"/>
<path d="M10.2388 13.0912H3.41854C2.90854 13.0912 2.49512 13.5796 2.49512 14.1821V14.1824C2.49512 14.7849 2.90854 15.2733 3.41854 15.2733H10.2388C10.7489 15.2733 11.1623 14.7849 11.1623 14.1824V14.1821C11.1623 13.5796 10.7489 13.0912 10.2388 13.0912Z" fill="white"/>
<path d="M4.60748 17.4536H1.6412C1.13133 17.4536 0.717773 17.942 0.717773 18.5445V18.5448C0.717773 19.1473 1.13133 19.6357 1.6412 19.6357H4.60748C5.11748 19.6357 5.5309 19.1473 5.5309 18.5448V18.5445C5.5309 17.942 5.11748 17.4536 4.60748 17.4536Z" fill="white"/>
<path d="M7.51074 18.5445V18.5448C7.51074 19.1473 7.92416 19.6357 8.43417 19.6357H11.4017C11.9117 19.6357 12.3251 19.1473 12.3251 18.5448V18.5445C12.3251 17.942 11.9117 17.4536 11.4017 17.4536H8.43417C7.92416 17.4536 7.51074 17.942 7.51074 18.5445Z" fill="white"/>
<path d="M3.83602 21.8179H2.13143C1.62143 21.8179 1.20801 22.3064 1.20801 22.9088V22.9093C1.20801 23.5116 1.62143 24 2.13143 24H3.82742H3.83602C4.34602 24 4.75944 23.5116 4.75944 22.9093V22.9088C4.75944 22.3063 4.34602 21.8179 3.83602 21.8179" fill="white"/>
<path d="M1.84686 5.45464C1.84686 4.85231 1.43343 4.36391 0.923427 4.36391C0.41342 4.36391 0 4.85231 0 5.45464C0 6.05714 0.41342 6.54553 0.923427 6.54553C1.43343 6.54553 1.84686 6.05714 1.84686 5.45464Z" fill="white"/>
</svg>
